<svg version="1.1" id="Layer_1" xmlns="http://www.w3.org/2000/svg" xmlns:xlink="http://www.w3.org/1999/xlink" x="0px" y="0px"
	 width="100%" viewBox="0 0 300 300" enable-background="new 0 0 300 300" xml:space="preserve">
<path fill="#FFFFFF" opacity="1.000000" stroke="none" 
	d="
M301.000000,97.000000 
	C301.000000,165.333328 301.000000,233.166641 301.000000,301.000000 
	C201.000031,301.000000 101.000061,301.000000 1.000068,301.000000 
	C1.000045,201.000046 1.000045,101.000099 1.000023,1.000108 
	C100.999939,1.000072 200.999878,1.000072 300.999908,1.000036 
	C301.000000,32.833332 301.000000,64.666664 301.000000,97.000000 
M121.500000,3.998145 
	C82.413193,3.998145 43.326385,3.998145 4.387061,3.998145 
	C4.387061,102.407402 4.387061,200.126816 4.387061,297.745422 
	C102.377556,297.745422 199.978943,297.745422 297.701233,297.745422 
	C297.701233,199.769745 297.701233,102.050613 297.701233,3.998144 
	C239.100891,3.998144 180.800446,3.998144 121.500000,3.998145 
z"/>
<path fill="#01AEEF" opacity="1.000000" stroke="none" 
	d="
M122.000000,3.998145 
	C180.800446,3.998144 239.100891,3.998144 297.701233,3.998144 
	C297.701233,102.050613 297.701233,199.769745 297.701233,297.745422 
	C199.978943,297.745422 102.377556,297.745422 4.387061,297.745422 
	C4.387061,200.126816 4.387061,102.407402 4.387061,3.998145 
	C43.326385,3.998145 82.413193,3.998145 122.000000,3.998145 
M18.183580,129.708939 
	C16.281099,142.967056 16.061995,156.225525 17.860296,169.527115 
	C27.048452,237.489578 89.313324,293.111725 165.661179,284.538208 
	C244.153564,275.723846 296.888794,203.867477 283.073975,126.273468 
	C268.465698,44.222771 179.388550,-5.473093 102.164749,25.938334 
	C55.754246,44.816189 28.055384,79.703705 18.183580,129.708939 
z"/>
<path fill="#F5FCFE" opacity="1.000000" stroke="none" 
	d="
M18.249504,129.276550 
	C28.055384,79.703705 55.754246,44.816189 102.164749,25.938334 
	C179.388550,-5.473093 268.465698,44.222771 283.073975,126.273468 
	C296.888794,203.867477 244.153564,275.723846 165.661179,284.538208 
	C89.313324,293.111725 27.048452,237.489578 17.860296,169.527115 
	C16.061995,156.225525 16.281099,142.967056 18.249504,129.276550 
M277.223938,175.609436 
	C280.118683,161.092590 280.245850,146.540573 278.197144,131.887634 
	C268.704651,63.994236 203.857224,14.509268 135.641113,23.192728 
	C63.132130,32.422646 13.217122,98.157394 23.826481,170.445175 
	C32.875999,232.104874 85.827637,278.282196 149.169022,279.752136 
	C210.160629,281.167511 264.945770,236.926056 277.223938,175.609436 
z"/>
<path fill="#02AEEF" opacity="1.000000" stroke="none" 
	d="
M277.154938,176.031464 
	C264.945770,236.926056 210.160629,281.167511 149.169022,279.752136 
	C85.827637,278.282196 32.875999,232.104874 23.826481,170.445175 
	C13.217122,98.157394 63.132130,32.422646 135.641113,23.192728 
	C203.857224,14.509268 268.704651,63.994236 278.197144,131.887634 
	C280.245850,146.540573 280.118683,161.092590 277.154938,176.031464 
M208.475357,129.855316 
	C212.782867,130.482544 215.530441,127.144638 215.061844,121.171303 
	C215.447540,115.821968 217.398178,110.859390 214.934723,105.001656 
	C213.470642,101.520264 211.530365,96.309280 214.958176,91.515274 
	C216.499390,89.359810 217.130402,85.849144 214.813034,82.537437 
	C212.251083,78.876251 213.094513,73.240883 208.280396,70.586227 
	C207.943222,70.400291 208.506577,68.581261 208.584549,68.009933 
	C206.814240,66.835861 204.360931,66.114479 203.832611,64.682739 
	C202.440948,60.911331 200.084915,58.197029 197.330109,55.654495 
	C197.206192,55.142979 197.082275,54.631462 197.033722,53.292400 
	C196.967834,52.197273 196.901947,51.102146 196.867157,49.243183 
	C196.383347,47.277622 195.899536,45.312061 195.395752,43.265366 
	C190.709106,45.414455 190.764542,46.399479 195.165070,50.724007 
	C192.784607,52.051685 193.367584,54.020210 193.259155,56.050400 
	C191.866852,55.647243 190.474564,55.244091 189.077713,54.083496 
	C187.420883,50.585300 185.880585,47.021225 183.980286,43.660698 
	C183.698746,43.162804 181.717560,43.626011 180.522720,43.644566 
	C180.782242,48.629124 180.095642,53.908268 181.533401,58.525970 
	C183.464233,64.727257 184.039703,64.871315 178.331833,67.609520 
	C177.557877,67.980797 176.867508,68.526344 175.622269,69.320312 
	C178.259277,69.453995 180.153946,69.550049 183.472382,69.718277 
	C181.061935,71.142082 180.078888,71.722755 178.805313,72.475029 
	C180.166977,73.149696 181.284180,73.703232 182.105194,74.110008 
	C181.036118,80.322739 178.426285,86.498238 179.437241,92.009567 
	C180.567642,98.172050 178.830505,102.211777 175.370636,106.346336 
	C169.934189,112.842903 164.362381,119.120415 155.779709,121.744698 
	C150.890701,123.239594 144.955261,122.985550 142.241806,128.825027 
	C142.052231,129.233032 140.865234,129.625778 140.454269,129.415482 
	C134.272186,126.252083 129.991577,130.229736 124.996994,132.885376 
	C117.038284,137.117081 110.164894,142.349686 105.008896,149.747940 
	C104.485107,150.499496 103.958817,152.241257 104.050331,152.286896 
	C107.868584,154.190842 103.993988,155.613480 103.804832,157.225052 
	C103.423409,160.474777 102.187309,164.020035 103.061646,166.911926 
	C103.968109,169.910110 106.734642,172.503281 109.113167,174.840561 
	C110.561638,176.263916 113.934731,178.131226 114.509956,177.620712 
	C116.876083,175.520782 121.447235,175.095139 120.548447,169.958755 
	C119.743111,165.356461 119.959465,160.575409 119.730118,155.974533 
	C125.324364,158.345459 126.605438,153.723526 128.768631,150.760422 
	C130.119034,151.014481 131.867630,150.868637 132.123840,150.173080 
	C132.792023,148.359100 132.747025,146.293716 133.093185,144.347595 
	C133.951294,139.523590 136.228668,137.781448 140.175766,138.354309 
	C138.741425,144.919266 137.367447,151.522995 135.787567,158.077087 
	C135.567047,158.991882 134.389359,160.273315 133.560928,160.348282 
	C127.720451,160.876816 127.526115,164.688934 127.814339,169.204834 
	C128.003616,172.170563 127.429100,175.176956 127.447502,178.163605 
	C127.472305,182.190552 125.250168,184.282425 122.032471,186.333755 
	C118.337646,188.689255 115.252281,191.984634 111.803917,194.749176 
	C109.886902,196.286026 107.839211,197.691696 105.720024,198.934067 
	C104.122810,199.870407 102.318443,200.453400 100.585587,201.202621 
	C116.685135,201.202621 132.447357,201.217316 148.209229,201.152359 
	C148.883987,201.149567 149.555679,200.410843 151.059280,199.987900 
	C151.850800,199.760086 152.642303,199.532257 153.478592,199.426712 
	C153.478592,199.426712 153.582611,199.505066 153.475006,200.181717 
	C154.064331,200.417740 154.653641,200.653763 156.149612,200.908951 
	C176.733078,200.568863 197.316528,200.228775 219.196960,199.867249 
	C214.875671,193.816116 217.452011,189.006561 219.470337,183.971344 
	C220.487610,181.433594 219.808319,179.137985 216.967789,177.231644 
	C213.863663,175.148438 211.524933,171.938721 208.797607,169.276337 
	C205.769974,166.320831 202.680252,163.428955 199.057556,159.975540 
	C199.057556,157.615677 199.057556,154.301819 199.736282,150.996567 
	C200.333557,150.636887 200.930817,150.277206 201.528091,149.917526 
	C200.715271,149.616913 199.902435,149.316315 199.235718,148.384155 
	C200.112671,147.569336 200.989624,146.754517 202.505295,145.927780 
	C204.356308,143.221008 206.386429,140.616440 208.006058,137.777679 
	C209.515488,135.132050 209.814575,132.286179 207.647079,129.667984 
	C207.647079,129.667984 207.758224,129.640625 208.475357,129.855316 
M86.267235,84.803551 
	C90.009666,80.563599 93.463730,76.015450 97.574463,72.169121 
	C101.807335,68.208496 106.491203,64.646820 111.328270,61.439182 
	C115.825256,58.457066 120.784081,56.171383 126.558601,53.023590 
	C87.816315,57.634720 51.089081,99.984642 46.246582,144.320129 
	C40.981468,192.524841 71.050194,238.933090 117.694138,254.592682 
	C164.129105,270.182129 215.421509,251.306458 240.986282,209.221008 
	C257.730774,181.655762 261.488159,129.490326 247.684341,116.229057 
	C258.537476,166.735382 230.233490,205.026718 197.775864,220.005417 
	C160.292389,237.303497 116.350952,227.438950 89.955383,195.736969 
	C63.622707,164.110519 61.974174,119.516373 86.267235,84.803551 
z"/>
<path fill="#FCFEFF" opacity="1.000000" stroke="none" 
	d="
M86.071945,85.103760 
	C61.974174,119.516373 63.622707,164.110519 89.955383,195.736969 
	C116.350952,227.438950 160.292389,237.303497 197.775864,220.005417 
	C230.233490,205.026718 258.537476,166.735382 247.684341,116.229057 
	C261.488159,129.490326 257.730774,181.655762 240.986282,209.221008 
	C215.421509,251.306458 164.129105,270.182129 117.694138,254.592682 
	C71.050194,238.933090 40.981468,192.524841 46.246582,144.320129 
	C51.089081,99.984642 87.816315,57.634720 126.558601,53.023590 
	C120.784081,56.171383 115.825256,58.457066 111.328270,61.439182 
	C106.491203,64.646820 101.807335,68.208496 97.574463,72.169121 
	C93.463730,76.015450 90.009666,80.563599 86.071945,85.103760 
z"/>
<path fill="#F9FDFF" opacity="1.000000" stroke="none" 
	d="
M196.973404,55.925991 
	C200.084915,58.197029 202.440948,60.911331 203.832611,64.682739 
	C204.360931,66.114479 206.814240,66.835861 208.584549,68.009933 
	C208.506577,68.581261 207.943222,70.400291 208.280396,70.586227 
	C213.094513,73.240883 212.251083,78.876251 214.813034,82.537437 
	C217.130402,85.849144 216.499390,89.359810 214.958176,91.515274 
	C211.530365,96.309280 213.470642,101.520264 214.934723,105.001656 
	C217.398178,110.859390 215.447540,115.821968 214.660828,121.655289 
	C212.092606,124.639725 209.925415,127.140175 207.758224,129.640625 
	C207.758224,129.640625 207.647079,129.667984 207.323944,129.869720 
	C203.682785,134.841034 200.642212,139.700394 201.866577,145.939697 
	C200.989624,146.754517 200.112671,147.569336 198.971680,148.891571 
	C198.824295,149.928650 198.940933,150.458298 199.057556,150.987946 
	C199.057556,154.301819 199.057556,157.615677 199.057556,159.975540 
	C202.680252,163.428955 205.769974,166.320831 208.797607,169.276337 
	C211.524933,171.938721 213.863663,175.148438 216.967789,177.231644 
	C219.808319,179.137985 220.487610,181.433594 219.470337,183.971344 
	C217.452011,189.006561 214.875671,193.816116 219.196960,199.867249 
	C197.316528,200.228775 176.733078,200.568863 155.555191,200.658508 
	C154.501389,200.107071 154.041992,199.806061 153.582611,199.505066 
	C153.582611,199.505066 153.478592,199.426712 153.303802,199.075867 
	C148.417526,191.220245 148.329956,190.043655 154.122330,183.479111 
	C156.839386,180.399826 160.307571,177.991928 163.354446,175.191727 
	C165.120911,173.568283 168.069244,171.114014 164.219666,169.639847 
	C160.993042,168.404236 156.917267,169.386063 153.217468,169.386063 
	C153.208405,169.889191 153.199326,170.392334 153.190262,170.895462 
	C154.989502,171.355713 156.788742,171.815964 159.301834,172.458817 
	C156.555008,176.289062 154.207565,179.881592 151.539307,183.217514 
	C145.753555,190.451080 145.559967,191.980270 150.228790,200.014954 
	C149.555679,200.410843 148.883987,201.149567 148.209229,201.152359 
	C132.447357,201.217316 116.685135,201.202621 100.585587,201.202621 
	C102.318443,200.453400 104.122810,199.870407 105.720024,198.934067 
	C107.839211,197.691696 109.886902,196.286026 111.803917,194.749176 
	C115.252281,191.984634 118.337646,188.689255 122.032471,186.333755 
	C125.250168,184.282425 127.472305,182.190552 127.447502,178.163605 
	C127.429100,175.176956 128.003616,172.170563 127.814339,169.204834 
	C127.526115,164.688934 127.720451,160.876816 133.560928,160.348282 
	C134.389359,160.273315 135.567047,158.991882 135.787567,158.077087 
	C137.367447,151.522995 138.741425,144.919266 140.175766,138.354309 
	C136.228668,137.781448 133.951294,139.523590 133.093185,144.347595 
	C132.747025,146.293716 132.792023,148.359100 132.123840,150.173080 
	C131.867630,150.868637 130.119034,151.014481 128.768631,150.760422 
	C126.605438,153.723526 125.324364,158.345459 119.730118,155.974533 
	C119.959465,160.575409 119.743111,165.356461 120.548447,169.958755 
	C121.447235,175.095139 116.876083,175.520782 114.509956,177.620712 
	C113.934731,178.131226 110.561638,176.263916 109.113167,174.840561 
	C106.734642,172.503281 103.968109,169.910110 103.061646,166.911926 
	C102.187309,164.020035 103.423409,160.474777 103.804832,157.225052 
	C103.993988,155.613480 107.868584,154.190842 104.050331,152.286896 
	C103.958817,152.241257 104.485107,150.499496 105.008896,149.747940 
	C110.164894,142.349686 117.038284,137.117081 124.996994,132.885376 
	C129.991577,130.229736 134.272186,126.252083 140.454269,129.415482 
	C140.865234,129.625778 142.052231,129.233032 142.241806,128.825027 
	C144.955261,122.985550 150.890701,123.239594 155.779709,121.744698 
	C164.362381,119.120415 169.934189,112.842903 175.370636,106.346336 
	C178.830505,102.211777 180.567642,98.172050 179.437241,92.009567 
	C178.426285,86.498238 181.036118,80.322739 182.105194,74.110008 
	C181.284180,73.703232 180.166977,73.149696 178.805313,72.475029 
	C180.078888,71.722755 181.061935,71.142082 183.472382,69.718277 
	C180.153946,69.550049 178.259277,69.453995 175.622269,69.320312 
	C176.867508,68.526344 177.557877,67.980797 178.331833,67.609520 
	C184.039703,64.871315 183.464233,64.727257 181.533401,58.525970 
	C180.095642,53.908268 180.782242,48.629124 180.522720,43.644562 
	C181.717560,43.626011 183.698746,43.162804 183.980286,43.660698 
	C185.880585,47.021225 187.420883,50.585300 188.971466,54.753403 
	C189.861603,57.086536 190.857971,58.749760 191.854355,60.412983 
	C192.414886,60.280468 192.975418,60.147953 193.535950,60.015438 
	C193.698364,58.678436 193.860764,57.341438 194.023163,56.004436 
	C193.367584,54.020210 192.784607,52.051685 195.491638,50.367725 
	C196.157501,50.009968 196.496780,50.008492 196.836060,50.007019 
	C196.901947,51.102146 196.967834,52.197273 196.997574,54.007137 
	C196.965408,55.123245 196.969406,55.524620 196.973404,55.925991 
M173.002335,141.126129 
	C169.901352,140.508240 166.800369,139.890350 162.862411,139.105682 
	C164.240997,141.804306 165.021042,143.364883 165.831268,144.909622 
	C167.146881,147.417938 168.482239,149.915924 169.893723,153.202148 
	C169.926712,153.462875 169.959717,153.723587 169.846527,154.668793 
	C167.989883,156.827621 166.133224,158.986450 163.670517,161.849976 
	C165.867157,163.319107 169.313553,166.765457 170.382828,166.141068 
	C174.942551,163.478424 177.658035,165.149246 179.697388,168.252014 
	C187.389572,165.159271 186.130264,158.771774 186.084167,152.883133 
	C186.051407,148.699097 185.886383,144.513107 185.645218,140.335785 
	C185.583481,139.266403 185.009583,138.226578 184.653687,137.119400 
	C182.059128,137.528503 179.633484,137.533142 177.552032,138.381851 
	C176.316956,138.885452 175.624420,140.719666 174.188324,141.952515 
	C173.855453,141.966721 173.522430,141.972702 173.002335,141.126129 
M190.043777,153.597626 
	C190.058502,154.072861 190.073212,154.548080 189.965363,155.807648 
	C189.869324,156.861389 189.773285,157.915146 189.297379,159.456497 
	C189.480667,160.198044 189.663940,160.939606 189.847229,161.681152 
	C190.116150,161.647659 190.385086,161.614166 190.654007,161.580673 
	C190.723068,160.708649 190.792145,159.836624 191.020355,158.239838 
	C191.344482,158.002777 191.668594,157.765717 191.992737,157.528656 
	C192.045624,157.685394 192.130615,157.838959 192.146454,157.999359 
	C192.308167,159.636795 192.458633,161.275345 192.612244,162.913574 
	C193.109085,162.919754 193.605911,162.925934 194.102753,162.932114 
	C195.451965,155.057938 196.801163,147.183762 198.150375,139.309586 
	C197.540115,139.101974 196.929840,138.894379 196.319580,138.686768 
	C195.537888,140.444641 194.756210,142.202499 193.274002,144.136002 
	C192.575897,145.121536 191.877777,146.107086 191.027481,147.824799 
	C190.790955,149.528030 190.554428,151.231277 190.043777,153.597626 
M159.108200,151.056503 
	C158.176285,150.933685 157.244370,150.810852 157.092575,150.790848 
	C157.843460,147.350189 158.566986,144.034912 159.514969,139.691101 
	C154.910080,144.765625 151.410507,148.622116 148.177444,152.184906 
	C148.399826,153.134583 148.706558,154.444519 149.071411,156.002609 
	C149.765717,156.002609 150.879974,156.002609 151.818665,156.702454 
	C147.892441,159.146362 143.924713,161.526520 140.050156,164.049744 
	C134.784027,167.479187 131.927948,172.108551 133.020447,178.248367 
	C138.067429,176.261246 143.069260,174.341797 148.017715,172.293381 
	C148.822418,171.960266 149.325241,170.961594 150.082932,170.437134 
	C151.397568,169.527176 152.709045,168.404358 154.193161,168.000870 
	C155.995926,167.510757 157.976120,167.673294 160.126633,167.537918 
	C159.817856,166.486649 159.807495,165.946625 159.539261,165.615524 
	C156.593292,161.979065 153.438553,158.411484 160.089066,155.178467 
	C160.425873,155.014740 159.783676,152.837128 159.108200,151.056503 
M205.042938,119.557510 
	C204.308121,121.345024 203.573288,123.132538 203.261963,123.889854 
	C201.381805,120.670174 199.308792,117.120224 197.028534,113.215347 
	C195.005798,114.482201 193.726227,115.283607 191.665939,116.573982 
	C199.806152,121.828217 199.783249,128.591888 195.810928,136.613007 
	C202.495071,132.541168 210.427155,117.817245 209.376038,111.652054 
	C207.810974,114.430740 206.563721,116.645187 205.042938,119.557510 
M198.538010,164.853409 
	C193.912018,164.028320 189.471191,163.913559 185.276428,168.666702 
	C196.241379,170.223297 193.552567,180.375778 197.190353,187.932327 
	C199.348343,178.909576 194.916901,173.242935 190.941681,166.411575 
	C195.026031,166.681000 197.848160,166.867142 200.670273,167.053299 
	C200.724564,166.722427 200.778870,166.391541 200.833160,166.060654 
	C200.327438,165.720779 199.821716,165.380920 198.538010,164.853409 
M186.892929,126.336182 
	C187.743317,124.110077 188.711441,121.920090 189.408813,119.647034 
	C190.025238,117.637794 190.339996,115.536003 190.787949,113.475082 
	C190.303619,113.369804 189.819275,113.264534 189.334946,113.159264 
	C184.168243,123.908417 183.896332,125.321251 186.483215,129.713882 
	C186.674652,128.606155 186.801559,127.871712 186.892929,126.336182 
M168.739105,188.991882 
	C167.844666,189.498352 166.950211,190.004822 165.356506,190.907242 
	C176.733978,191.396805 178.597214,190.546509 177.160248,186.030609 
	C174.573273,186.897156 171.987793,187.763214 168.739105,188.991882 
z"/>
<path fill="#16AEEF" opacity="1.000000" stroke="none" 
	d="
M150.644043,200.001434 
	C145.559967,191.980270 145.753555,190.451080 151.539307,183.217514 
	C154.207565,179.881592 156.555008,176.289062 159.301834,172.458817 
	C156.788742,171.815964 154.989502,171.355713 153.190262,170.895462 
	C153.199326,170.392334 153.208405,169.889191 153.217468,169.386063 
	C156.917267,169.386063 160.993042,168.404236 164.219666,169.639847 
	C168.069244,171.114014 165.120911,173.568283 163.354446,175.191727 
	C160.307571,177.991928 156.839386,180.399826 154.122330,183.479111 
	C148.329956,190.043655 148.417526,191.220245 153.281433,199.014725 
	C152.642303,199.532257 151.850800,199.760086 150.644043,200.001434 
z"/>
<path fill="#18ACEF" opacity="1.000000" stroke="none" 
	d="
M202.185928,145.933746 
	C200.642212,139.700394 203.682785,134.841034 207.274124,129.897888 
	C209.814575,132.286179 209.515488,135.132050 208.006058,137.777679 
	C206.386429,140.616440 204.356308,143.221008 202.185928,145.933746 
z"/>
<path fill="#18ACEF" opacity="1.000000" stroke="none" 
	d="
M208.116791,129.747971 
	C209.925415,127.140175 212.092606,124.639725 214.607025,122.061829 
	C215.530441,127.144638 212.782867,130.482544 208.116791,129.747971 
z"/>
<path fill="#F1FBFE" opacity="1.000000" stroke="none" 
	d="
M196.851624,49.625099 
	C196.496780,50.008492 196.157501,50.009968 195.563721,50.009705 
	C190.764542,46.399479 190.709106,45.414455 195.395752,43.265366 
	C195.899536,45.312061 196.383347,47.277622 196.851624,49.625099 
z"/>
<path fill="#F1FBFE" opacity="1.000000" stroke="none" 
	d="
M193.641159,56.027420 
	C193.860764,57.341438 193.698364,58.678436 193.535950,60.015438 
	C192.975418,60.147953 192.414886,60.280468 191.854355,60.412983 
	C190.857971,58.749760 189.861603,57.086536 188.973740,55.132126 
	C190.474564,55.244091 191.866852,55.647243 193.641159,56.027420 
z"/>
<path fill="#1AB0EF" opacity="1.000000" stroke="none" 
	d="
M199.396927,150.992249 
	C198.940933,150.458298 198.824295,149.928650 198.898621,149.207367 
	C199.902435,149.316315 200.715271,149.616913 201.528091,149.917526 
	C200.930817,150.277206 200.333557,150.636887 199.396927,150.992249 
z"/>
<path fill="#F1FBFE" opacity="1.000000" stroke="none" 
	d="
M197.151764,55.790245 
	C196.969406,55.524620 196.965408,55.123245 196.959900,54.420910 
	C197.082275,54.631462 197.206192,55.142979 197.151764,55.790245 
z"/>
<path fill="#16AEEF" opacity="1.000000" stroke="none" 
	d="
M153.528809,199.843384 
	C154.041992,199.806061 154.501389,200.107071 155.101868,200.648926 
	C154.653641,200.653763 154.064331,200.417740 153.528809,199.843384 
z"/>
<path fill="#07AEEF" opacity="1.000000" stroke="none" 
	d="
M174.687958,141.955582 
	C175.624420,140.719666 176.316956,138.885452 177.552032,138.381851 
	C179.633484,137.533142 182.059128,137.528503 184.653687,137.119400 
	C185.009583,138.226578 185.583481,139.266403 185.645218,140.335785 
	C185.886383,144.513107 186.051407,148.699097 186.084167,152.883133 
	C186.130264,158.771774 187.389572,165.159271 179.697388,168.252014 
	C177.658035,165.149246 174.942551,163.478424 170.382828,166.141068 
	C169.313553,166.765457 165.867157,163.319107 163.670517,161.849976 
	C166.133224,158.986450 167.989883,156.827621 170.215424,154.142609 
	C175.215485,150.877884 175.618622,146.651428 174.687958,141.955582 
z"/>
<path fill="#0AAEEF" opacity="1.000000" stroke="none" 
	d="
M159.597305,151.597198 
	C159.783676,152.837128 160.425873,155.014740 160.089066,155.178467 
	C153.438553,158.411484 156.593292,161.979065 159.539261,165.615524 
	C159.807495,165.946625 159.817856,166.486649 160.126633,167.537918 
	C157.976120,167.673294 155.995926,167.510757 154.193161,168.000870 
	C152.709045,168.404358 151.397568,169.527176 150.082932,170.437134 
	C149.325241,170.961594 148.822418,171.960266 148.017715,172.293381 
	C143.069260,174.341797 138.067429,176.261246 133.020447,178.248367 
	C131.927948,172.108551 134.784027,167.479187 140.050156,164.049744 
	C143.924713,161.526520 147.892441,159.146362 152.194427,156.244278 
	C154.912582,154.389801 157.254944,152.993500 159.597305,151.597198 
z"/>
<path fill="#10ADEF" opacity="1.000000" stroke="none" 
	d="
M205.179703,119.208572 
	C206.563721,116.645187 207.810974,114.430740 209.376038,111.652054 
	C210.427155,117.817245 202.495071,132.541168 195.810928,136.613007 
	C199.783249,128.591888 199.806152,121.828217 191.665939,116.573982 
	C193.726227,115.283607 195.005798,114.482201 197.028534,113.215347 
	C199.308792,117.120224 201.381805,120.670174 203.261963,123.889854 
	C203.573288,123.132538 204.308121,121.345024 205.179703,119.208572 
z"/>
<path fill="#18ACEF" opacity="1.000000" stroke="none" 
	d="
M198.927002,164.947235 
	C199.821716,165.380920 200.327438,165.720779 200.833160,166.060654 
	C200.778870,166.391541 200.724564,166.722427 200.670273,167.053299 
	C197.848160,166.867142 195.026031,166.681000 190.941681,166.411575 
	C194.916901,173.242935 199.348343,178.909576 197.190353,187.932327 
	C193.552567,180.375778 196.241379,170.223297 185.276428,168.666702 
	C189.471191,163.913559 193.912018,164.028320 198.927002,164.947235 
z"/>
<path fill="#1AB0EF" opacity="1.000000" stroke="none" 
	d="
M193.974518,143.960373 
	C194.756210,142.202499 195.537888,140.444641 196.319580,138.686768 
	C196.929840,138.894379 197.540115,139.101974 198.150375,139.309586 
	C196.801163,147.183762 195.451965,155.057938 194.102753,162.932114 
	C193.605911,162.925934 193.109085,162.919754 192.612244,162.913574 
	C192.458633,161.275345 192.308167,159.636795 192.146454,157.999359 
	C192.130615,157.838959 192.045624,157.685394 191.992737,157.528656 
	C191.668594,157.765717 191.344482,158.002777 190.644791,158.602203 
	C190.071884,158.966003 189.874557,158.967438 189.677246,158.968887 
	C189.773285,157.915146 189.869324,156.861389 190.363022,155.396744 
	C191.373886,154.669540 191.987091,154.353241 192.600296,154.036942 
	C191.839493,153.669464 191.078705,153.301987 190.317902,152.934509 
	C190.554428,151.231277 190.790955,149.528030 191.345520,147.643372 
	C192.250244,147.845749 192.836960,148.229568 193.423676,148.613373 
	C193.607285,147.062378 193.790909,145.511368 193.974518,143.960373 
z"/>
<path fill="#1AB0EF" opacity="1.000000" stroke="none" 
	d="
M159.352753,151.326843 
	C157.254944,152.993500 154.912582,154.389801 152.282227,155.894348 
	C150.879974,156.002609 149.765717,156.002609 149.071411,156.002609 
	C148.706558,154.444519 148.399826,153.134583 148.177444,152.184906 
	C151.410507,148.622116 154.910080,144.765625 159.514969,139.691101 
	C158.566986,144.034912 157.843460,147.350189 157.092575,150.790848 
	C157.244370,150.810852 158.176285,150.933685 159.352753,151.326843 
z"/>
<path fill="#0AAEEF" opacity="1.000000" stroke="none" 
	d="
M169.809265,152.418259 
	C168.482239,149.915924 167.146881,147.417938 165.831268,144.909622 
	C165.021042,143.364883 164.240997,141.804306 162.862411,139.105682 
	C166.800369,139.890350 169.901352,140.508240 173.038940,141.951355 
	C171.986786,145.990479 170.898026,149.204376 169.809265,152.418259 
z"/>
<path fill="#1AB0EF" opacity="1.000000" stroke="none" 
	d="
M186.910706,126.736725 
	C186.801559,127.871712 186.674652,128.606155 186.483215,129.713882 
	C183.896332,125.321251 184.168243,123.908417 189.334946,113.159264 
	C189.819275,113.264534 190.303619,113.369804 190.787949,113.475082 
	C190.339996,115.536003 190.025238,117.637794 189.408813,119.647034 
	C188.711441,121.920090 187.743317,124.110077 186.910706,126.736725 
z"/>
<path fill="#1AB0EF" opacity="1.000000" stroke="none" 
	d="
M169.070709,188.810577 
	C171.987793,187.763214 174.573273,186.897156 177.160248,186.030609 
	C178.597214,190.546509 176.733978,191.396805 165.356506,190.907242 
	C166.950211,190.004822 167.844666,189.498352 169.070709,188.810577 
z"/>
<path fill="#DBF4FD" opacity="1.000000" stroke="none" 
	d="
M169.851501,152.810211 
	C170.898026,149.204376 171.986786,145.990479 173.132401,142.373535 
	C173.522430,141.972702 173.855453,141.966721 174.438141,141.954041 
	C175.618622,146.651428 175.215485,150.877884 170.288528,153.800385 
	C169.959717,153.723587 169.926712,153.462875 169.851501,152.810211 
z"/>
<path fill="#40C2F3" opacity="1.000000" stroke="none" 
	d="
M193.624268,144.048187 
	C193.790909,145.511368 193.607285,147.062378 193.423676,148.613373 
	C192.836960,148.229568 192.250244,147.845749 191.421600,147.277283 
	C191.877777,146.107086 192.575897,145.121536 193.624268,144.048187 
z"/>
<path fill="#40C2F3" opacity="1.000000" stroke="none" 
	d="
M190.180847,153.266068 
	C191.078705,153.301987 191.839493,153.669464 192.600296,154.036942 
	C191.987091,154.353241 191.373886,154.669540 190.424316,155.004578 
	C190.073212,154.548080 190.058502,154.072861 190.180847,153.266068 
z"/>
<path fill="#40C2F3" opacity="1.000000" stroke="none" 
	d="
M189.487305,159.212692 
	C189.874557,158.967438 190.071884,158.966003 190.565216,158.964569 
	C190.792145,159.836624 190.723068,160.708649 190.654007,161.580673 
	C190.385086,161.614166 190.116150,161.647659 189.847229,161.681152 
	C189.663940,160.939606 189.480667,160.198044 189.487305,159.212692 
z"/>
</svg>